<svg width="9" height="13" viewBox="0 0 9 13" fill="none" xmlns="http://www.w3.org/2000/svg">
<path d="M3.72092 7.47824C4.17749 8.27775 3.854 9.14994 3.83045 9.98579C3.80844 10.7612 4.07102 11.4553 4.63457 12.0004" stroke="white" stroke-linecap="round" stroke-linejoin="round"/>
<path d="M8.63505 4.05128C8.44157 3.4043 8.0239 2.88785 7.45882 2.59712C7.36004 2.54593 7.25767 2.50294 7.15171 2.46762C7.30629 2.8771 7.40047 3.29886 7.43272 3.72728C7.49465 4.56467 7.32779 5.40256 6.95005 6.15038C6.90654 6.23688 6.86098 6.32082 6.81236 6.40425C6.75861 6.49485 6.70231 6.57879 6.64447 6.66325C6.36193 7.07324 6.01848 7.4259 5.63306 7.70435C6.71715 7.87582 7.87803 7.24624 8.42315 6.18569C8.65757 5.72964 8.76813 5.21625 8.74305 4.70031C8.73793 4.59538 8.72156 4.49352 8.70518 4.39115C8.68624 4.2765 8.66781 4.16184 8.63454 4.05179L8.63505 4.05128Z" fill="white"/>
<path d="M5.21538 6.9655C5.30445 6.89742 5.38941 6.82423 5.47131 6.74694C5.58033 6.64406 5.68321 6.5335 5.77944 6.41629C5.83267 6.35128 5.88232 6.2832 5.93095 6.21411C5.98009 6.14449 6.03025 6.07693 6.07427 6.00374C6.16947 5.84609 6.25341 5.67973 6.32507 5.50622C6.46788 5.15918 6.56104 4.784 6.59379 4.3909C6.61017 4.19435 6.6112 3.99319 6.59635 3.78896C6.54619 3.11025 6.31995 2.49245 5.97804 1.97395C5.93402 1.90741 5.88591 1.84547 5.83779 1.78252C5.78814 1.717 5.7344 1.65609 5.68065 1.59467C5.6264 1.53273 5.56549 1.46773 5.49843 1.4017C5.47745 1.38123 5.45237 1.36024 5.43036 1.33977C5.38122 1.29421 5.3326 1.24814 5.27732 1.20208C5.24661 1.17649 5.21129 1.15192 5.17853 1.12684C5.12632 1.0864 5.07462 1.04596 5.0173 1.00655C4.97891 0.980447 4.93591 0.955879 4.89497 0.930798C4.83764 0.894969 4.78031 0.859139 4.71838 0.825869C4.67282 0.8013 4.62266 0.779803 4.57455 0.756769C4.51108 0.72657 4.44812 0.696371 4.38005 0.669755C4.32733 0.648769 4.27102 0.63239 4.21574 0.613963C4.14613 0.59093 4.07601 0.567897 4.0023 0.548959C3.94293 0.534115 3.87997 0.523366 3.81804 0.511594C3.74177 0.497262 3.66499 0.483442 3.58463 0.474229C3.5186 0.467063 3.4495 0.463992 3.3804 0.460409C3.26882 0.454778 3.15775 0.448124 3.039 0.454778C2.12893 0.50238 1.33505 0.963556 0.787376 1.65967C0.582125 1.92071 0.411168 2.21452 0.28167 2.53237C0.195167 2.74428 0.127603 2.96642 0.0800008 3.19675C0.00885376 3.54174 -0.0167378 3.90413 0.010902 4.27471C0.0370063 4.62737 0.109177 4.96366 0.22076 5.27793C0.332343 5.59221 0.482827 5.88447 0.665557 6.14808C0.848287 6.41168 1.06326 6.64662 1.30383 6.84675C1.86431 7.31356 2.56298 7.59149 3.30977 7.59968L3.24579 8.12637L4.57352 7.92112L4.3304 7.44305C4.65184 7.33301 4.9482 7.16973 5.21487 6.96499L5.21538 6.9655Z" fill="white"/>
<path d="M6.58456 0.0882456C6.12441 -0.0427878 5.64225 -0.0258968 5.17749 0.125611C6.17969 0.692228 6.63063 1.37555 6.64343 1.37964C7.70091 1.68061 8.24347 2.2247 8.43592 2.4663C8.38167 1.29109 7.66764 0.391772 6.58508 0.0877337L6.58456 0.0882456Z" fill="white"/>
</svg>
