<svg viewBox="0 0 108 80" fill="none" xmlns="http://www.w3.org/2000/svg">
<path d="M40 38.5C39.1716 38.5 38.5 39.1716 38.5 40C38.5 40.8284 39.1716 41.5 40 41.5L40 38.5ZM69.0607 41.0607C69.6464 40.4749 69.6464 39.5251 69.0607 38.9393L59.5147 29.3934C58.9289 28.8076 57.9792 28.8076 57.3934 29.3934C56.8076 29.9792 56.8076 30.9289 57.3934 31.5147L65.8787 40L57.3934 48.4853C56.8076 49.0711 56.8076 50.0208 57.3934 50.6066C57.9792 51.1924 58.9289 51.1924 59.5147 50.6066L69.0607 41.0607ZM40 41.5L68 41.5L68 38.5L40 38.5L40 41.5Z" fill="#FFD400"/>
</svg>
