<svg width="13" height="13" viewBox="0 0 13 13" fill="none" xmlns="http://www.w3.org/2000/svg">
<path d="M6.34741 0.691017C3.14434 0.0541671 0.216011 1.20688 0.313961 2.96092C0.397576 4.45493 2.11766 4.01793 2.01912 5.3777C1.96477 6.12832 0.0410156 6.45096 0.0410156 8.39582C0.0410156 8.8876 0.165245 9.31317 0.313961 9.68336C1.34422 12.2506 4.82143 12.5137 6.17898 12.5137C8.77882 12.5137 12.041 10.5538 12.041 6.60264C12.041 3.51711 9.7613 1.3694 6.34741 0.691017ZM7.24627 3.57008C7.30898 3.28055 7.4792 2.96574 7.71332 2.78094C7.79813 2.69607 7.89847 2.63708 8.01374 2.60458C8.07406 2.59615 8.13439 2.58832 8.19471 2.5799C8.37627 2.57147 8.54649 2.66116 8.67669 2.78094C8.7191 2.82007 8.75314 2.87123 8.783 2.92541C8.86124 2.90615 8.93948 2.88689 9.01713 2.86762C9.28649 2.80021 9.56421 2.89351 9.73323 3.11382C9.82461 3.233 9.87956 3.37686 9.87956 3.52975C9.87956 3.64412 9.84552 3.77835 9.78639 3.87647C9.65858 4.08835 9.43938 4.28699 9.18854 4.32973C9.06789 4.36223 8.94725 4.36223 8.8266 4.32973C8.826 4.32973 8.82481 4.32913 8.82421 4.32853C8.78241 4.33876 8.74119 4.34959 8.69939 4.35922C8.37448 4.43627 8.05316 4.50068 7.72228 4.4146C7.54788 4.36946 7.41052 4.24787 7.31496 4.09919C7.21701 3.94569 7.20924 3.74224 7.24627 3.57008ZM2.46944 9.77185C1.8047 9.77185 1.26538 9.17412 1.26538 8.43615C1.26538 7.69817 1.8041 7.10045 2.46944 7.10045C3.13478 7.10045 3.67351 7.69817 3.67351 8.43615C3.67351 9.17412 3.13478 9.77185 2.46944 9.77185ZM4.32332 2.69005C4.22537 2.53656 4.21701 2.3331 4.25463 2.16095C4.31734 1.87142 4.48756 1.5566 4.72168 1.37181C4.80649 1.28694 4.90683 1.22795 5.0221 1.19544C5.08243 1.18701 5.14275 1.17919 5.20307 1.17076C5.38463 1.16233 5.55485 1.25202 5.68505 1.37181C5.72746 1.41093 5.7615 1.4621 5.79136 1.51627C5.8696 1.49701 5.94784 1.47775 6.02549 1.45849C6.29485 1.39107 6.57317 1.48437 6.74159 1.70468C6.83297 1.82446 6.88792 1.96773 6.88792 2.12062C6.88792 2.23499 6.85388 2.36922 6.79475 2.46733C6.66694 2.67922 6.44774 2.87786 6.1969 2.92059C6.07625 2.9531 5.95561 2.9531 5.83496 2.92059C5.83437 2.92059 5.83317 2.91999 5.83257 2.91939C5.79077 2.92962 5.74956 2.93985 5.70775 2.95009C5.38284 3.02714 5.06152 3.09154 4.73064 3.00547C4.55625 2.96032 4.41888 2.83873 4.32332 2.69005ZM7.27554 11.1695C7.14772 11.3814 6.92853 11.5795 6.67769 11.6228C6.55704 11.6553 6.4364 11.6553 6.31516 11.6228C6.31456 11.6228 6.31336 11.6222 6.31277 11.6216C6.27096 11.6318 6.22975 11.6427 6.18794 11.6523C5.86303 11.7293 5.54171 11.7938 5.21083 11.7077C5.03644 11.6625 4.89907 11.5409 4.80351 11.3923C4.70556 11.2388 4.6972 11.0353 4.73483 10.8632C4.79754 10.5736 4.96775 10.2588 5.20188 10.074C5.28668 9.98915 5.38702 9.93015 5.50229 9.89765C5.56262 9.88922 5.62294 9.8814 5.68326 9.87297C5.86483 9.86455 6.03504 9.95423 6.16524 10.074C6.20765 10.1131 6.24169 10.1643 6.27155 10.2185C6.34979 10.1992 6.42804 10.18 6.50568 10.1607C6.77504 10.0933 7.05276 10.1866 7.22178 10.4069C7.31316 10.5261 7.36811 10.6699 7.36811 10.8228C7.36811 10.9372 7.33466 11.0714 7.27554 11.1695ZM9.96616 9.23672C9.83835 9.4486 9.61916 9.64664 9.36831 9.68998C9.24767 9.72249 9.12702 9.72249 9.00578 9.68998C9.00518 9.68998 9.00399 9.68938 9.00339 9.68878C8.96158 9.69901 8.92037 9.70924 8.87856 9.71948C8.55366 9.79713 8.23234 9.86093 7.90146 9.77546C7.72706 9.73031 7.58969 9.60872 7.49413 9.46004C7.39618 9.30655 7.38782 9.10309 7.42545 8.93094C7.48816 8.64141 7.65838 8.32659 7.8925 8.1418C7.97731 8.05693 8.07765 7.99794 8.19292 7.96543C8.25324 7.957 8.31356 7.94918 8.37388 7.94075C8.55545 7.93232 8.72567 8.02201 8.85587 8.1418C8.89827 8.18092 8.93232 8.23209 8.96218 8.28626C9.04042 8.267 9.11866 8.24774 9.1963 8.22848C9.46566 8.16106 9.74339 8.25436 9.91241 8.47467C10.0038 8.59385 10.0587 8.73772 10.0587 8.89061C10.0587 9.00498 10.0247 9.13921 9.96556 9.23732L9.96616 9.23672ZM10.3735 7.02581C10.2528 7.05831 10.1322 7.05831 10.011 7.02581C10.0104 7.02581 10.0092 7.02521 10.0086 7.0246C9.96676 7.03484 9.92555 7.04567 9.88374 7.0553C9.55883 7.13235 9.23751 7.19676 8.90663 7.11068C8.73223 7.06554 8.59487 6.94394 8.49931 6.79526C8.40136 6.64177 8.393 6.43832 8.43062 6.26616C8.49334 5.97663 8.66355 5.66182 8.89767 5.47702C8.98248 5.39215 9.08282 5.33316 9.19809 5.30066C9.25842 5.29223 9.31874 5.2844 9.37906 5.27598C9.56063 5.26755 9.73084 5.35724 9.86104 5.47702C9.90345 5.51615 9.93749 5.56731 9.96735 5.62149C10.0456 5.60222 10.1238 5.58296 10.2015 5.5637C10.4708 5.49628 10.7492 5.58959 10.9176 5.80989C11.009 5.92908 11.0639 6.07294 11.0639 6.22583C11.0639 6.3402 11.0299 6.47443 10.9707 6.57255C10.8429 6.78443 10.6243 6.98247 10.3735 7.02581Z" fill="white"/>
</svg>
