<svg xmlns="http://www.w3.org/2000/svg" fill="none" viewBox="0 0 24 25">
  <rect width="24" height="24" y=".5" style="fill:currentColor" rx="12" />
  <path  fill="#fff" d="M13.521 14.95h-3.065L10.144 4.5h3.688l-.311 10.45Zm-1.509 5.55c-.367 0-.706-.094-1.018-.282a2.126 2.126 0 0 1-.742-.75 2.013 2.013 0 0 1-.252-1.03 1.95 1.95 0 0 1 .252-1.02c.184-.311.431-.557.742-.737a1.936 1.936 0 0 1 1.018-.282c.343 0 .667.094.97.282A2.028 2.028 0 0 1 14 18.437c0 .368-.092.712-.275 1.031a2.126 2.126 0 0 1-.743.75 1.81 1.81 0 0 1-.97.282Z"/>
</svg>
