<svg viewBox="0 0 34 34" fill="none" xmlns="http://www.w3.org/2000/svg">
<path d="M5 15L17 5L29 15" style="fill:currentColor"/>
<path d="M8 13V29H26V13" style="fill:currentColor"/>
<path fill-rule="evenodd" clip-rule="evenodd" d="M17.9603 3.84767C17.404 3.38411 16.596 3.38411 16.0397 3.84767L4.0397 13.8477C3.40328 14.378 3.3173 15.3239 3.84764 15.9603C4.37799 16.5967 5.32384 16.6827 5.96025 16.1523L17 6.95256L28.0397 16.1523C28.6761 16.6827 29.622 16.5967 30.1523 15.9603C30.6827 15.3239 30.5967 14.378 29.9603 13.8477L17.9603 3.84767ZM9.49998 17C9.49998 16.1716 8.8284 15.5 7.99998 15.5C7.17155 15.5 6.49998 16.1716 6.49998 17V29C6.49998 29.8284 7.17155 30.5 7.99998 30.5H26C26.8284 30.5 27.5 29.8284 27.5 29V17C27.5 16.1716 26.8284 15.5 26 15.5C25.1715 15.5 24.5 16.1716 24.5 17V27.5H9.49998V17Z" fill="#3C3C46"/>
</svg>
