<svg xmlns="http://www.w3.org/2000/svg" fill="none" viewBox="0 0 34 34">
  <g clip-path="url(#a)">
    <path fill="#DCDCE6" d="M17 30.346c7.18 0 13-5.898 13-13.173S24.18 4 17 4 4 9.898 4 17.173s5.82 13.173 13 13.173Z"/>
    <mask id="b" width="26" height="27" x="4" y="4" maskUnits="userSpaceOnUse" style="mask-type:luminance">
      <path fill="#fff" d="M17 30.346c7.18 0 13-5.898 13-13.173S24.18 4 17 4 4 9.898 4 17.173s5.82 13.173 13 13.173Z"/>
    </mask>
    <g mask="url(#b)">
      <path fill="#fff" d="m24.526 19.688-4.002.177 4.158-10.388a.539.539 0 0 0-.513-.744l-10.714.475a.53.53 0 0 0-.467.335L7.806 22.492a.539.539 0 0 0 .514.744l5.06-.224-4.172 14.513c-.207.518.4.976.825.622l14.85-17.501c.395-.33.151-.981-.358-.958Zm-11.414-2.91a.788.788 0 0 1-.783-.793c0-.438.35-.793.783-.793.432 0 .783.355.783.793 0 .437-.35.793-.783.793Zm2.78-.053a.788.788 0 0 1-.782-.793c0-.438.35-.793.783-.793.432 0 .782.355.782.793 0 .438-.35.793-.782.793Z"/>
    </g>
    <circle cx="17" cy="17" r="13" 
    style="stroke:currentColor" stroke-width="3"/>
  </g>
  <defs>
    <clipPath id="a">
      <path fill="#fff" d="M0 0h34v34H0z"/>
    </clipPath>
  </defs>
</svg>
