<svg width="14" height="14" viewBox="0 0 14 14" fill="none" xmlns="http://www.w3.org/2000/svg">
<path d="M8.90013 0.00058333H5.09987C2.28307 0.00058333 0 2.42607 0 5.41739C0 8.40871 2.29707 10.84 5.10454 10.84H8.06133C8.71697 10.84 9.24836 11.4047 9.24836 12.1006V13.3898C9.24836 13.8938 9.80134 14.1796 10.1852 13.8745L11.5548 12.7849C13.0941 11.5604 14 9.6372 14 7.59438V5.41681C14 2.4249 11.7169 0 8.90071 0L8.90013 0.00058333ZM3.93325 6.29589C3.45027 6.29589 3.05829 5.90389 3.05829 5.42089C3.05829 4.93789 3.45027 4.54589 3.93325 4.54589C4.41623 4.54589 4.80822 4.93789 4.80822 5.42089C4.80822 5.90389 4.41623 6.29589 3.93325 6.29589ZM6.99971 6.29589C6.51673 6.29589 6.12474 5.90389 6.12474 5.42089C6.12474 4.93789 6.51673 4.54589 6.99971 4.54589C7.48269 4.54589 7.87467 4.93789 7.87467 5.42089C7.87467 5.90389 7.48269 6.29589 6.99971 6.29589ZM10.0656 6.29589C9.5826 6.29589 9.19062 5.90389 9.19062 5.42089C9.19062 4.93789 9.5826 4.54589 10.0656 4.54589C10.5486 4.54589 10.9405 4.93789 10.9405 5.42089C10.9405 5.90389 10.5486 6.29589 10.0656 6.29589Z" fill="#60EFE1"/>
</svg>
