<svg width="40" height="40" viewBox="0 0 40 40" fill="none" xmlns="http://www.w3.org/2000/svg">
<circle cx="20" cy="20" r="20" fill="#48B3A9"/>
<path d="M19 28C19 28.5523 19.4477 29 20 29C20.5523 29 21 28.5523 21 28L19 28ZM20.7071 11.2929C20.3166 10.9024 19.6834 10.9024 19.2929 11.2929L12.9289 17.6569C12.5384 18.0474 12.5384 18.6805 12.9289 19.0711C13.3195 19.4616 13.9526 19.4616 14.3431 19.0711L20 13.4142L25.6569 19.0711C26.0474 19.4616 26.6805 19.4616 27.0711 19.0711C27.4616 18.6805 27.4616 18.0474 27.0711 17.6569L20.7071 11.2929ZM21 28L21 12L19 12L19 28L21 28Z" fill="white"/>
</svg>
