<svg width="40" height="40" viewBox="0 0 40 40" fill="none" xmlns="http://www.w3.org/2000/svg">
<g clip-path="url(#clip0_1541_53438)">
<path d="M34 0H6C2.68629 0 0 2.68629 0 6V34C0 37.3137 2.68629 40 6 40H34C37.3137 40 40 37.3137 40 34V6C40 2.68629 37.3137 0 34 0Z" fill="#C8C8D2"/>
<path d="M30.0661 11.104L28.4291 11.102L30.3351 6.76604C30.4021 6.61404 30.2981 6.44004 30.1401 6.44004L25.7581 6.43604C25.6741 6.43604 25.5971 6.48804 25.5611 6.56904L23.1861 11.974C23.1191 12.126 23.2231 12.3 23.3811 12.3L25.4511 12.302L23.4571 18.392C23.3621 18.608 23.6011 18.815 23.7811 18.673L30.1931 11.518C30.3611 11.386 30.2741 11.104 30.0661 11.104Z" fill="white"/>
<path d="M30.361 32.5849C30.397 32.5229 30.428 32.4589 30.456 32.3919C30.471 32.3559 30.487 32.3209 30.499 32.2829C30.522 32.2149 30.537 32.1439 30.551 32.0729C30.558 32.0349 30.568 31.9969 30.573 31.9579C30.574 31.9469 30.578 31.9369 30.579 31.9259C30.585 31.8589 30.579 31.7939 30.578 31.7289C30.578 31.6959 30.583 31.6649 30.58 31.6319L30.182 27.1639C30.123 26.4999 29.661 25.9419 29.019 25.7599L23.628 24.2289C22.946 24.0329 22.21 24.3139 21.829 24.9159L20.163 27.5499C18.722 26.7499 17.42 25.7829 16.273 24.6409C15.129 23.4919 14.161 22.1879 13.359 20.7459L15.993 19.0799C16.595 18.6989 16.875 17.9669 16.68 17.2809L15.149 11.8909C14.967 11.2499 14.408 10.7879 13.745 10.7279L9.31804 10.3339C9.31204 10.3339 9.30604 10.3339 9.30004 10.3319L9.27604 10.3299C9.24704 10.3269 9.21904 10.3329 9.19104 10.3319C9.12204 10.3299 9.05304 10.3239 8.98204 10.3319C8.97204 10.3319 8.96304 10.3369 8.95404 10.3379C8.90004 10.3439 8.84904 10.3579 8.79704 10.3689C8.73904 10.3819 8.68004 10.3929 8.62504 10.4109C8.57704 10.4269 8.53204 10.4479 8.48604 10.4689C8.42804 10.4939 8.37204 10.5209 8.31804 10.5519C8.27904 10.5749 8.24104 10.6019 8.20404 10.6289C8.14904 10.6689 8.09604 10.7099 8.04604 10.7559C8.02904 10.7719 8.00904 10.7829 7.99304 10.7989C7.97804 10.8139 7.96804 10.8319 7.95404 10.8479C7.90604 10.8999 7.86404 10.9549 7.82304 11.0119C7.79904 11.0459 7.77404 11.0799 7.75304 11.1159C7.71604 11.1789 7.68604 11.2449 7.65704 11.3119C7.64204 11.3469 7.62504 11.3799 7.61304 11.4159C7.58704 11.4939 7.57004 11.5739 7.55504 11.6569C7.55004 11.6859 7.54104 11.7129 7.53704 11.7429C7.52404 11.8549 7.52004 11.9689 7.53104 12.0859C7.60604 12.8789 7.71004 13.6509 7.83904 14.4049C7.86904 14.5789 7.91204 14.7439 7.94404 14.9159C8.05304 15.4919 8.16804 16.0629 8.30804 16.6149C8.36204 16.8259 8.43004 17.0269 8.48804 17.2339C8.62704 17.7279 8.76804 18.2199 8.93304 18.6939C9.01704 18.9359 9.11604 19.1669 9.20604 19.4039C9.36704 19.8239 9.52904 20.2429 9.71004 20.6459C9.74004 20.7119 9.76204 20.7839 9.79304 20.8489C9.81904 20.9049 9.85604 20.9539 9.88704 21.0069C10.936 23.2279 12.297 25.2099 13.996 26.9159C15.701 28.6139 17.683 29.9739 19.905 31.0229C19.956 31.0539 20.003 31.0889 20.058 31.1139C20.122 31.1439 20.193 31.1659 20.258 31.1949C20.666 31.3789 21.09 31.5429 21.515 31.7049C21.748 31.7939 21.975 31.8909 22.213 31.9729C22.69 32.1389 23.184 32.2809 23.681 32.4199C23.887 32.4779 24.085 32.5449 24.294 32.5979C24.849 32.7389 25.423 32.8549 26.002 32.9639C26.171 32.9959 26.333 33.0389 26.505 33.0679C27.26 33.1969 28.032 33.3009 28.825 33.3759C28.876 33.3809 28.926 33.3829 28.977 33.3829H28.978C29.083 33.3829 29.186 33.3719 29.286 33.3529C29.307 33.3489 29.327 33.3399 29.348 33.3349C29.426 33.3159 29.503 33.2959 29.577 33.2659C29.609 33.2529 29.638 33.2349 29.669 33.2199C29.729 33.1909 29.789 33.1629 29.845 33.1269C29.878 33.1059 29.907 33.0799 29.938 33.0569C29.989 33.0189 30.038 32.9809 30.084 32.9379C30.092 32.9299 30.102 32.9249 30.11 32.9159C30.127 32.8989 30.139 32.8779 30.155 32.8599C30.206 32.8039 30.254 32.7459 30.297 32.6839C30.319 32.6519 30.339 32.6199 30.359 32.5859L30.361 32.5849Z" fill="white"/>
</g>
<defs>
<clipPath id="clip0_1541_53438">
<rect width="40" height="40" fill="white"/>
</clipPath>
</defs>
</svg>
