<svg width="19" height="22" viewBox="0 0 19 22" fill="none" xmlns="http://www.w3.org/2000/svg">
<path d="M3 5V4H2V5H3ZM17 5H18V4H17V5ZM1 4C0.447715 4 0 4.44772 0 5C0 5.55228 0.447715 6 1 6V4ZM9 10C9 9.44771 8.55228 9 8 9C7.44772 9 7 9.44771 7 10H9ZM13 10C13 9.44771 12.5523 9 12 9C11.4477 9 11 9.44771 11 10H13ZM14 5V6H15V5H14ZM6 5H5V6H6V5ZM3 6H17V4H3V6ZM16 5V17H18V5H16ZM13 20H7V22H13V20ZM4 17V5H2V17H4ZM7 20C5.34315 20 4 18.6569 4 17H2C2 19.7614 4.23858 22 7 22V20ZM16 17C16 18.6569 14.6569 20 13 20V22C15.7614 22 18 19.7614 18 17H16ZM1 6H19V4H1V6ZM7 10V15H9V10H7ZM11 10V15H13V10H11ZM8 2H12V0H8V2ZM13 3V5H15V3H13ZM14 4H6V6H14V4ZM7 5V3H5V5H7ZM12 2C12.5523 2 13 2.44772 13 3H15C15 1.34315 13.6569 0 12 0V2ZM8 0C6.34315 0 5 1.34315 5 3H7C7 2.44772 7.44772 2 8 2V0Z" fill="white"/>
</svg>
