<svg width="13" height="12" viewBox="0 0 13 12" fill="none" xmlns="http://www.w3.org/2000/svg">
<path d="M2.24432 6.64876C2.21447 6.33248 2.20816 6.02884 2.21505 5.73209C1.6112 5.49216 1.18702 5.10873 0.972347 4.57204C0.755377 4.02847 0.785225 3.412 0.913226 2.8403C0.338083 3.76271 0 4.84813 0 6.01507C0 6.2527 0.0172198 6.48632 0.0441976 6.71706C0.467232 7.01554 1.18645 7.34386 2.3861 7.55624C2.32353 7.26236 2.27359 6.96158 2.24375 6.64876H2.24432Z" fill="white"/>
<path d="M2.27539 4.93443C2.58018 2.57359 3.93366 0.93943 4.7826 0.127228C3.86364 0.318368 3.02446 0.722459 2.31213 1.28096C2.31213 1.28096 0.45296 3.73306 2.27539 4.93443Z" fill="white"/>
<path d="M2.1558 10.1416C2.24305 9.89421 2.45313 9.56301 2.96169 9.39598C2.98523 9.38795 3.00933 9.3868 3.03344 9.37991C2.86756 9.05331 2.72004 8.71293 2.60122 8.35246C1.56918 8.1992 0.801751 7.96501 0.243828 7.7027C0.573301 8.83002 1.22306 9.81844 2.08922 10.5658C2.09209 10.4211 2.10759 10.2782 2.15523 10.1422L2.1558 10.1416Z" fill="white"/>
<path d="M7.27875 2.9153C6.65654 3.33029 6.18701 3.86353 5.73355 4.37955C5.04935 5.15789 4.34506 5.95804 3.25332 5.95804C3.16091 5.95804 3.06448 5.95115 2.96632 5.9391C2.96632 6.14803 2.97206 6.35926 2.99273 6.57796C3.02717 6.94416 3.09892 7.31037 3.19592 7.67314C3.46283 7.70298 3.74294 7.72882 4.04888 7.74661C8.12596 7.98883 10.3921 6.37361 11.9189 4.895C11.714 3.80728 11.2146 2.82575 10.5086 2.0302C9.73889 1.91712 8.62419 2.01814 7.27875 2.9153Z" fill="white"/>
<path d="M3.00474 5.17801C3.85597 5.30429 4.37486 4.78539 5.16927 3.8825C5.63249 3.35615 6.15712 2.75862 6.86198 2.28909C7.92789 1.57791 8.88187 1.30584 9.67341 1.24959C8.65916 0.468953 7.39235 0 6.01362 0C5.94531 0 5.8793 0.00803463 5.81157 0.0103306C5.81157 0.0103306 3.36004 1.99865 3.00474 5.17743V5.17801Z" fill="white"/>
<path d="M6.49181 10.9017C5.74677 10.5429 5.02755 10.1957 4.35368 10.0654C4.92079 10.8288 5.65321 11.4964 6.53831 11.9997C7.16741 11.9452 7.76895 11.7966 8.32745 11.5635C7.83037 11.4613 7.27072 11.2759 6.64105 10.9734L6.49181 10.9017Z" fill="white"/>
<path d="M12.0268 6.01502C12.0268 5.95303 12.0193 5.89276 12.0176 5.83134C10.5057 7.18827 8.34633 8.52281 4.85357 8.52281C4.5792 8.52281 4.29622 8.51477 4.0052 8.49812C3.8089 8.48664 3.63153 8.46885 3.44958 8.45221C3.56036 8.73117 3.69582 9.00267 3.84334 9.269C4.83348 9.27646 5.83797 9.75517 6.81893 10.2276L6.96702 10.2987C8.04268 10.8165 8.85374 10.9531 9.488 10.9181C11.0223 9.82864 12.0268 8.04123 12.0268 6.0156V6.01502Z" fill="white"/>
<path d="M3.42627 10.0595C3.34993 10.0744 3.27244 10.0853 3.19725 10.11C2.96134 10.1875 2.89533 10.3063 2.86606 10.3896C2.79316 10.5973 2.85515 10.8993 2.96191 11.1891C3.63693 11.5881 4.39518 11.8578 5.20566 11.9669C4.51572 11.4423 3.9113 10.8034 3.42627 10.0595Z" fill="white"/>
</svg>
