<svg width="14" height="14" viewBox="0 0 14 14" fill="none" xmlns="http://www.w3.org/2000/svg">
<path d="M0.5 7C0.5 3.41018 3.41018 0.5 7 0.5C10.5898 0.5 13.5 3.41018 13.5 7C13.5 10.5898 10.5898 13.5 7 13.5C3.41018 13.5 0.5 10.5898 0.5 7Z" stroke="white"/>
<path d="M0.699951 6.5C0.423809 6.5 0.199951 6.72386 0.199951 7C0.199951 7.27614 0.423809 7.5 0.699951 7.5V6.5ZM8.0535 7.35355C8.24877 7.15829 8.24877 6.84171 8.0535 6.64645L4.87152 3.46447C4.67626 3.2692 4.35968 3.2692 4.16442 3.46447C3.96916 3.65973 3.96916 3.97631 4.16442 4.17157L6.99284 7L4.16442 9.82843C3.96916 10.0237 3.96916 10.3403 4.16442 10.5355C4.35968 10.7308 4.67626 10.7308 4.87152 10.5355L8.0535 7.35355ZM0.699951 7.5H7.69995V6.5H0.699951V7.5Z" fill="white"/>
</svg>
