<svg width="8" height="13" viewBox="0 0 8 13" fill="none" xmlns="http://www.w3.org/2000/svg">
<path d="M1.97219 0.556641C0.942433 0.556641 0.224645 1.8344 0.224121 2.9816C0.224121 3.94267 0.731134 4.67251 1.52704 4.87647C1.49034 6.04412 1.33095 11.9206 1.33724 11.9647C1.35664 12.3569 1.6597 12.5566 1.95646 12.5566C1.9638 12.5566 1.97114 12.5566 1.97848 12.5566C2.28258 12.5467 2.58668 12.3259 2.58039 11.9227L2.41523 4.877C3.21167 4.67461 3.71973 3.94476 3.71973 2.98317C3.72025 1.83597 3.00352 0.557689 1.97324 0.557165L1.97219 0.556641Z" fill="white"/>
<path d="M7.67426 0.927933C7.66115 0.679932 7.45195 0.553048 7.27158 0.556718C7.08126 0.559864 6.88621 0.693564 6.88202 0.94209L6.85371 2.8464C6.85213 2.93816 6.77873 3.01104 6.68645 3.01261H6.6833C6.59364 3.01261 6.51972 2.9434 6.51447 2.85322C6.46676 2.06045 6.41905 0.951527 6.41852 0.948381C6.40594 0.742326 6.23449 0.577691 6.02896 0.572972C5.81451 0.580837 5.62576 0.74285 5.61999 0.963587L5.57962 2.87C5.57752 2.96123 5.50412 3.03358 5.41341 3.03516C5.31851 3.03149 5.24616 2.96699 5.24091 2.87629C5.21417 2.385 5.17957 1.53457 5.16436 1.15863L5.1565 0.971976C5.14339 0.72712 4.94887 0.600761 4.76064 0.600761C4.75802 0.600761 4.7554 0.600761 4.7533 0.600761C4.56297 0.603906 4.36845 0.737082 4.36373 0.984035C4.36216 1.03437 4.28666 3.97735 4.28666 3.97735C4.27827 4.22692 4.37055 4.46287 4.54567 4.64061C4.72079 4.81835 4.95149 4.91902 5.20473 4.91011L5.61265 4.90277C5.59692 6.2146 5.56756 11.9223 5.57543 11.9737C5.60164 12.3606 5.9005 12.5551 6.19359 12.5551C6.2046 12.5551 6.21561 12.5551 6.22715 12.5541C6.53125 12.5389 6.83116 12.3129 6.81753 11.9108L6.53178 4.87026L6.94913 4.86292C7.19923 4.8582 7.4294 4.75491 7.59876 4.57035C7.76759 4.38632 7.85148 4.14775 7.83417 3.89975C7.8326 3.87301 7.67216 1.22522 7.67373 0.926885L7.67426 0.927933Z" fill="white"/>
</svg>
