<svg width="40" height="40" viewBox="0 0 40 40" fill="none" xmlns="http://www.w3.org/2000/svg">
<g clip-path="url(#clip0_1541_53433)">
<path d="M34 0H6C2.68629 0 0 2.68629 0 6V34C0 37.3137 2.68629 40 6 40H34C37.3137 40 40 37.3137 40 34V6C40 2.68629 37.3137 0 34 0Z" fill="#C8C8D2"/>
<path d="M4.565 29.0129H35.463C36.342 29.0129 36.793 27.9609 36.188 27.3239L31.243 22.124C30.604 21.442 29.526 21.426 28.867 22.089L24.752 26.2339C24.104 26.8859 23.048 26.884 22.404 26.228L14.771 18.4599C14.128 17.8059 13.075 17.801 12.426 18.45L3.846 27.318C3.232 27.953 3.682 29.0129 4.565 29.0129Z" fill="white"/>
<path d="M25.364 15.985C26.7436 15.985 27.862 14.8666 27.862 13.487C27.862 12.1074 26.7436 10.989 25.364 10.989C23.9844 10.989 22.866 12.1074 22.866 13.487C22.866 14.8666 23.9844 15.985 25.364 15.985Z" fill="white"/>
</g>
<defs>
<clipPath id="clip0_1541_53433">
<rect width="40" height="40" fill="white"/>
</clipPath>
</defs>
</svg>
