<svg width="37" height="44" viewBox="0 0 37 44" fill="none" xmlns="http://www.w3.org/2000/svg">
<path d="M15.5015 0C7.49375 0 1 7.40817 1 16.5453C1 26.9102 8.29423 35.475 13.596 40.2616C14.6894 41.2462 16.3135 41.2462 17.404 40.2616C22.7058 35.478 30 26.9102 30 16.5453C30.0029 7.40817 23.5092 0 15.5015 0ZM15.5015 20.0952C11.7949 20.0952 8.79018 17.0228 8.79018 13.2327C8.79018 9.4426 11.7949 6.3702 15.5015 6.3702C19.208 6.3702 22.2127 9.4426 22.2127 13.2327C22.2127 17.0228 19.208 20.0952 15.5015 20.0952Z" fill="#A5A5AF"/>
<path d="M36.5507 27.196L33.2971 27.362L36.6779 17.6894C36.7971 17.3511 36.5746 16.9851 36.2619 17.0005L27.6005 17.4403C27.4336 17.4495 27.2852 17.5694 27.2243 17.7509L23.0327 29.7456C22.9134 30.0839 23.136 30.4499 23.4487 30.4345L27.5528 30.2254L25.5392 40.3071C25.3722 40.7869 25.8624 41.2113 26.2068 40.8853L36.8422 28.0848C37.1601 27.7803 36.964 27.1775 36.5534 27.199L36.5507 27.196Z" fill="#FFD400"/>
</svg>
