<svg viewBox="0 0 22 23" fill="none" xmlns="http://www.w3.org/2000/svg">
<path d="M11.8967 2.31699C11.5299 1.57374 10.4701 1.57374 10.1033 2.31699L7.99985 6.57896C7.85419 6.87411 7.57262 7.07868 7.24691 7.12601L2.54354 7.80945C1.72332 7.92863 1.39581 8.9366 1.98933 9.51514L5.39272 12.8326C5.62841 13.0624 5.73596 13.3934 5.68032 13.7178L4.87689 18.4021C4.73677 19.219 5.59421 19.842 6.32784 19.4563L10.5347 17.2446C10.826 17.0915 11.174 17.0915 11.4653 17.2446L15.6722 19.4563C16.4058 19.842 17.2632 19.219 17.1231 18.4021L16.3197 13.7178C16.264 13.3934 16.3716 13.0624 16.6073 12.8326L20.0107 9.51514C20.6042 8.9366 20.2767 7.92863 19.4565 7.80945L14.7531 7.12601C14.4274 7.07868 14.1458 6.87411 14.0001 6.57896L11.8967 2.31699Z" fill="#FFD400"/>
</svg>
