<svg viewBox="0 0 28 28" fill="none" xmlns="http://www.w3.org/2000/svg">
<path d="M25.238 14.1563C25.1643 14.1442 25.0898 14.1364 25.0146 14.1322V14.0096C25.0132 13.6114 24.9898 13.2138 24.9444 12.8184C25.021 12.8142 25.0976 12.8028 25.1721 12.7851C26.3222 12.435 26.9703 11.2205 26.62 10.0711C26.6165 10.0605 26.6136 10.0498 26.6101 10.0392C26.4669 9.60695 26.3002 9.18249 26.1116 8.76795C25.6011 7.66392 24.302 7.16859 23.1852 7.65258C23.1143 7.68376 23.0455 7.72061 22.9795 7.761C22.725 7.40598 22.4477 7.06726 22.1492 6.74838C22.2038 6.69311 22.2548 6.63429 22.3016 6.57264C23.0157 5.62168 22.8235 4.27176 21.8719 3.55818C21.8563 3.54684 21.8407 3.5355 21.8251 3.52416C21.4514 3.25276 21.0636 3.0012 20.6622 2.77232C19.6028 2.16291 18.2499 2.51013 17.6159 3.55463C17.5755 3.62266 17.55 3.69636 17.5159 3.77147C17.0898 3.62833 16.6558 3.50999 16.2155 3.41858C16.2254 3.34701 16.2339 3.26906 16.2375 3.20174C16.2148 1.97937 15.2093 1.00502 13.9861 1.0192C13.5252 1.0192 13.0642 1.04258 12.6055 1.08935C11.4014 1.2006 10.5158 2.26566 10.6264 3.46889C10.6264 3.47244 10.6264 3.47527 10.6271 3.47881C10.637 3.55464 10.6576 3.62975 10.6718 3.69565C10.2498 3.82745 9.83715 3.98477 9.4351 4.16759C8.89122 3.13797 7.62407 2.73122 6.5817 3.25135C6.44909 3.31654 6.32429 3.3959 6.20871 3.48732C5.83644 3.75305 5.47834 4.03791 5.13585 4.34191C4.24026 5.12352 4.14808 6.48336 4.93092 7.37834C4.94368 7.39322 4.95716 7.4074 4.96992 7.42228C5.02665 7.47613 5.08692 7.52644 5.15003 7.57321C4.88767 7.92115 4.64728 8.28467 4.4303 8.66165C4.36223 8.62622 4.29203 8.59575 4.2197 8.56953C3.06033 8.19467 1.81374 8.81613 1.41664 9.96764C1.2727 10.402 1.15215 10.8435 1.05571 11.2899C0.811074 12.4669 1.56768 13.6199 2.7462 13.8636C2.754 13.865 2.7618 13.8665 2.7696 13.8686C2.84192 13.8785 2.92205 13.8877 2.98658 13.8913V13.9912C2.988 14.393 3.01211 14.794 3.0582 15.1937C1.91443 15.3581 1.12095 16.4182 1.28617 17.5605C1.28688 17.5655 1.28759 17.5711 1.2883 17.5761C1.31028 17.7143 1.34644 17.8503 1.39679 17.9814C1.54002 18.4144 1.70666 18.8388 1.89528 19.2541C2.40867 20.3595 3.71198 20.852 4.82952 20.3631C4.89972 20.3312 4.96779 20.2951 5.03303 20.2547C5.29043 20.6068 5.56769 20.9441 5.86338 21.2652C5.80878 21.3211 5.75773 21.3799 5.71093 21.4416C4.9997 22.3989 5.20038 23.751 6.15766 24.4617C6.17113 24.4717 6.18531 24.4823 6.19949 24.4922C6.57319 24.7608 6.96177 25.0088 7.36241 25.2355C8.42534 25.8379 9.77404 25.4836 10.4037 24.4369C10.437 24.3696 10.4697 24.3023 10.4966 24.2336C10.9157 24.3767 11.3426 24.495 11.7758 24.5865C11.7652 24.6601 11.7553 24.7381 11.7517 24.8118C11.7652 26.0278 12.7622 27.0036 13.979 26.9922H14.0506C14.4853 26.9929 14.9192 26.9717 15.3511 26.927C16.5587 26.8264 17.455 25.7663 17.3543 24.5595C17.3543 24.5546 17.3536 24.5489 17.3529 24.5439C17.3415 24.4688 17.3259 24.3944 17.3061 24.3207C17.728 24.1896 18.1414 24.0323 18.5434 23.8509C18.5782 23.9182 18.6179 23.9855 18.6618 24.0514C19.3958 25.0293 20.7757 25.2462 21.7748 24.5397C22.1478 24.2747 22.5059 23.9905 22.8476 23.6872C23.7482 22.9113 23.8489 21.5536 23.0724 20.6536C23.059 20.638 23.0455 20.6231 23.032 20.6083C22.9746 20.5551 22.915 20.5048 22.8519 20.4573C23.1136 20.1115 23.3539 19.7494 23.5716 19.3746C23.6432 19.4079 23.7156 19.4405 23.7886 19.4681C24.9466 19.8458 26.1939 19.2257 26.5917 18.0749C26.7349 17.6484 26.8554 17.2147 26.9512 16.7753C27.2043 15.5955 26.452 14.4341 25.2713 14.1818C25.2621 14.1797 25.2529 14.1775 25.243 14.1761L25.2387 14.1577L25.238 14.1563Z" stroke="#A5A5AF" stroke-width="1.5"/>
<path d="M13.9717 26.998C12.7535 27.01 11.7551 26.0336 11.7423 24.8154C11.7466 24.741 11.7544 24.6659 11.7665 24.5922C11.3332 24.5008 10.9063 24.3825 10.4872 24.2393C10.461 24.3095 10.4298 24.3775 10.3944 24.4427C9.76822 25.4886 8.42094 25.8444 7.35942 25.2442C6.95878 25.0139 6.57091 24.763 6.19651 24.4923C5.22292 23.8078 4.98892 22.4635 5.6739 21.4906C5.68454 21.475 5.69589 21.4594 5.70723 21.4445C5.75687 21.3793 5.81572 21.3361 5.85969 21.2681C5.56541 20.9464 5.28816 20.6098 5.02934 20.2597C4.96339 20.2994 4.89532 20.3355 4.82583 20.3681C3.71255 20.8613 2.40852 20.3745 1.89088 19.2733V19.2627C1.70368 18.8453 1.53775 18.4209 1.39238 17.99C1.02436 16.847 1.65262 15.6225 2.79569 15.2548C2.80632 15.2512 2.81696 15.2477 2.8283 15.2448C2.90276 15.2229 2.97792 15.2073 3.0545 15.1974C3.00841 14.7984 2.9843 14.3966 2.98289 13.9948V13.8949C2.91056 13.8921 2.83752 13.8843 2.7659 13.8722C1.58242 13.6419 0.810217 12.4961 1.04067 11.3141C1.04209 11.3077 1.04351 11.3014 1.04493 11.295C1.14136 10.8478 1.26191 10.4057 1.40444 9.97129C1.79941 8.81978 3.04529 8.1969 4.20395 8.57176H4.21388C4.2862 8.59727 4.3564 8.62774 4.42448 8.66388C4.64146 8.28548 4.88184 7.92125 5.14421 7.57332C5.0811 7.52442 5.02154 7.4734 4.9641 7.42238C4.15715 6.54795 4.21175 5.18527 5.08748 4.37816C5.10166 4.3654 5.11585 4.35265 5.13003 4.33989C5.47252 4.0366 5.83061 3.75174 6.20289 3.48671C7.19633 2.77455 8.57694 2.9843 9.3144 3.95865C9.35836 4.02243 9.39666 4.08975 9.43069 4.15919C9.83275 3.97779 10.2454 3.81976 10.6659 3.68725C10.378 2.56763 11.0524 1.42605 12.1735 1.13835C12.1813 1.13622 12.1898 1.1341 12.1976 1.13197C12.3309 1.09725 12.4677 1.0767 12.6053 1.07032C13.0641 1.02284 13.525 0.999459 13.9859 1.00017C15.2091 0.985287 16.2146 1.96035 16.2373 3.18271C16.2338 3.25712 16.2267 3.33223 16.2153 3.40593C16.6557 3.49734 17.0903 3.61497 17.5158 3.75882C17.547 3.68938 17.5754 3.61568 17.6144 3.54765C18.2448 2.50598 19.5906 2.15663 20.6493 2.75896C21.0506 2.9843 21.4385 3.23303 21.8122 3.5023C22.7837 4.18966 23.0141 5.53391 22.3263 6.50543C22.315 6.52173 22.3029 6.53803 22.2916 6.55362C22.2448 6.61527 22.1937 6.67408 22.1391 6.72935C22.4383 7.04823 22.7156 7.38624 22.9695 7.74197C23.0354 7.70087 23.1042 7.66402 23.1751 7.63355C24.2919 7.1439 25.5959 7.63568 26.11 8.74183C26.2902 9.15212 26.4603 9.57658 26.6085 10.0103C26.9758 11.1547 26.3448 12.3799 25.2003 12.7469C25.1903 12.7498 25.1804 12.7533 25.1705 12.7562C25.0953 12.7717 25.0195 12.7831 24.9429 12.7909C24.989 13.1863 25.0124 13.5838 25.0145 13.9821V14.0983C25.0889 14.1032 25.1634 14.1117 25.2364 14.1245C26.4206 14.3576 27.1907 15.5063 26.9567 16.6897C26.9553 16.6975 26.9539 16.7053 26.9517 16.7131C26.8546 17.1574 26.734 17.5953 26.5908 18.0269C26.1951 19.1791 24.9478 19.802 23.7878 19.4264C23.714 19.3988 23.6417 19.3669 23.5708 19.3307C23.3502 19.707 23.1063 20.0684 22.8404 20.4135C22.8993 20.4652 22.9617 20.5099 23.0205 20.5644C23.826 21.4353 23.7729 22.7945 22.9014 23.5994C22.8865 23.6129 22.8723 23.6264 22.8567 23.6391C22.5142 23.9424 22.1561 24.228 21.7838 24.4937C20.7847 25.1988 19.407 24.982 18.6723 24.0055C18.6277 23.9417 18.5887 23.8744 18.5539 23.8049C18.1512 23.9856 17.7377 24.143 17.3165 24.2748C17.3329 24.3492 17.3548 24.4257 17.3641 24.4987C17.4711 25.7062 16.5791 26.7726 15.3708 26.8818C14.9375 26.925 14.5036 26.947 14.0703 26.9477L13.9703 26.9994L13.9717 26.998Z" stroke="#A5A5AF" stroke-width="1.5" stroke-linecap="round" stroke-linejoin="round"/>
<path d="M14 20C17.3137 20 20 17.3137 20 14C20 10.6863 17.3137 8 14 8C10.6863 8 8 10.6863 8 14C8 17.3137 10.6863 20 14 20Z" stroke="#A5A5AF" stroke-width="1.5"/>
</svg>
