<svg viewBox="0 0 186 130" fill="none" xmlns="http://www.w3.org/2000/svg">
<g clip-path="url(#clip0_1541_43982)">
<path fill-rule="evenodd" clip-rule="evenodd" d="M73.3341 61.4076C80.5363 60.6915 86.9474 65.9469 87.6656 73.1535V73.1537C88.3846 80.3609 83.1333 86.7866 75.9371 87.5062L58.7358 89.2267C62.654 97.9337 66.1671 105.657 68.8108 111.365C71.8535 117.935 69.002 125.732 62.4411 128.78C60.6581 129.608 58.7841 130 56.9398 130C51.9984 130 47.268 127.186 45.0518 122.401C39.5104 110.436 30.1773 89.6816 21.2449 69.4475C20.9115 68.8314 20.632 68.194 20.4042 67.5422C12.5789 49.794 5.16557 32.675 1.01066 22.5047L0.991629 22.4584L0.980237 22.4305L0.97534 22.4186C0.972279 22.4112 0.969581 22.4038 0.966879 22.3964C0.964537 22.39 0.962194 22.3835 0.95961 22.3771C0.795853 21.9738 0.653391 21.5663 0.532299 21.1555C0.530828 21.1506 0.529507 21.1456 0.528186 21.1406L0.524656 21.1277C0.466113 20.9277 0.412096 20.7272 0.36357 20.526C0.359601 20.5094 0.356059 20.4929 0.352519 20.4763C0.349309 20.4613 0.3461 20.4463 0.342572 20.4313C0.301392 20.2542 0.262289 20.0769 0.228528 19.899C0.22169 19.8629 0.215784 19.8266 0.209877 19.7904C0.205786 19.7653 0.201694 19.7402 0.197291 19.7151C0.17147 19.5677 0.145945 19.4203 0.125318 19.2727C0.116684 19.2113 0.109734 19.1498 0.102784 19.0884L0.102782 19.0884C0.0995189 19.0595 0.0962559 19.0307 0.0928187 19.0018L0.0857797 18.943C0.0739016 18.8441 0.0620277 18.7453 0.0530481 18.6464C0.0446468 18.5548 0.038897 18.4634 0.0331468 18.372L0.0285625 18.2999L0.0231182 18.2188C0.018556 18.1523 0.0139963 18.0858 0.0112 18.0194C0.00569268 17.8912 0.00414947 17.7632 0.00260637 17.6353L0.00237032 17.6157C0.00207471 17.5887 0.0015747 17.5616 0.00107475 17.5346L0.00107465 17.5346C0.000194278 17.4869 -0.000685851 17.4393 -0.000449235 17.3918C0.000366953 17.2439 0.00563507 17.0966 0.0113484 16.9493C0.0122775 16.9258 0.0130036 16.9023 0.0137294 16.8788L0.0137299 16.8788C0.0149168 16.8404 0.016103 16.802 0.0181747 16.7637C0.0263366 16.6105 0.0389504 16.458 0.0524546 16.3056C0.054399 16.2836 0.0561561 16.2615 0.0579127 16.2395C0.0607143 16.2044 0.0635146 16.1693 0.0670717 16.1342C0.0825793 15.9821 0.10239 15.8307 0.123166 15.6794C0.126074 15.6581 0.128809 15.6367 0.131544 15.6154C0.136208 15.579 0.140872 15.5426 0.14639 15.5063C0.168502 15.3597 0.194768 15.214 0.221776 15.0685C0.225867 15.0464 0.2298 15.0243 0.233733 15.0021L0.233737 15.0021C0.240931 14.9617 0.248124 14.9212 0.256279 14.881C0.283732 14.7443 0.31497 14.6088 0.346727 14.4733L0.362368 14.405C0.373458 14.3562 0.384546 14.3074 0.396737 14.2589C0.426933 14.1391 0.460522 14.0203 0.494123 13.9016L0.494132 13.9015L0.496609 13.8928L0.515483 13.8252L0.515487 13.8252C0.532478 13.7641 0.549466 13.7031 0.56784 13.6424C0.596007 13.5496 0.626616 13.4577 0.657219 13.3657L0.67157 13.3226L0.692153 13.2603L0.69217 13.2603C0.717026 13.1849 0.741866 13.1095 0.768622 13.0347C0.794125 12.9633 0.821395 12.8926 0.848661 12.8219L0.848675 12.8219L0.871536 12.7625L0.885622 12.7256C0.922501 12.629 0.959359 12.5325 0.998787 12.4369C1.02039 12.3847 1.04314 12.3331 1.06589 12.2814L1.09695 12.2106C1.14911 12.0907 1.20135 11.9709 1.25707 11.8524C1.27624 11.8119 1.29621 11.7718 1.31618 11.7317L1.31619 11.7317L1.31619 11.7317L1.31624 11.7316C1.32725 11.7095 1.33827 11.6874 1.34915 11.6652C1.41207 11.5369 1.47551 11.4089 1.54259 11.2826C1.55973 11.2504 1.57756 11.2185 1.5954 11.1867L1.59541 11.1867C1.60683 11.1663 1.61824 11.1459 1.62948 11.1255C1.70249 10.9925 1.77639 10.8599 1.85415 10.7293C1.87095 10.7011 1.88835 10.6733 1.90576 10.6455C1.9171 10.6274 1.92844 10.6092 1.93963 10.591C2.02132 10.4574 2.10413 10.3244 2.19079 10.1936C2.20825 10.1673 2.22627 10.1413 2.2443 10.1154L2.24431 10.1154L2.24433 10.1153C2.25679 10.0974 2.26926 10.0795 2.28154 10.0614C2.36954 9.9321 2.45843 9.80347 2.55118 9.67707C2.57203 9.64875 2.5935 9.62087 2.61497 9.59299L2.61499 9.59298L2.615 9.59296C2.62973 9.57383 2.64446 9.55471 2.65899 9.53545C2.74936 9.41581 2.8404 9.29655 2.93508 9.17974C2.96311 9.14522 2.99197 9.11131 3.02082 9.07742L3.02091 9.07732C3.03824 9.05696 3.05558 9.0366 3.07272 9.01611L3.07381 9.01481C3.16211 8.90958 3.25028 8.80451 3.34206 8.70186C3.38318 8.65585 3.42559 8.61082 3.468 8.56578L3.46801 8.56577L3.46801 8.56576C3.48758 8.54498 3.50715 8.52419 3.52659 8.50331L3.57074 8.45589L3.57075 8.45588C3.63676 8.38489 3.70275 8.31392 3.77108 8.24465C3.83733 8.17729 3.90566 8.11172 3.97399 8.04614L4.02269 7.99936C4.04341 7.97943 4.06402 7.9594 4.08463 7.93938L4.08466 7.93935C4.1305 7.89478 4.17635 7.85022 4.22354 7.80676C4.33143 7.70718 4.44302 7.61096 4.55454 7.5148C4.57387 7.49818 4.59297 7.48137 4.61206 7.46456C4.64127 7.43885 4.67048 7.41314 4.70049 7.38811C4.83843 7.27278 4.98022 7.16117 5.1235 7.05112C5.13578 7.04174 5.14782 7.03213 5.15986 7.02252C5.17357 7.01158 5.18727 7.00064 5.20134 6.99004C5.36747 6.86446 5.53746 6.7429 5.71064 6.62475L5.72025 6.61795L5.72985 6.61115C6.08579 6.3692 6.45634 6.14346 6.84069 5.93473C6.84621 5.93172 6.85158 5.92855 6.85695 5.92538L6.85697 5.92537C6.86235 5.92219 6.86773 5.91901 6.87326 5.916L6.8783 5.9134C6.92468 5.88843 6.97186 5.86443 7.01904 5.84044L7.08799 5.80521C15.2246 1.46119 25.2383 -0.64431 33.9299 0.173518C44.0312 1.12428 51.8173 7.13672 55.2908 16.669C60.3433 30.5347 55.2158 51.0562 48.1137 63.9303L73.3341 61.4076ZM35.6959 37.4806C35.8549 37.8406 36.3779 37.8063 36.4864 37.4279C37.9543 32.3074 37.2672 28.9729 36.3025 25.9067C34.7163 20.8648 29.5778 20.7597 28.6951 21.109C28.4855 21.1919 28.3891 21.4284 28.4794 21.6353C29.8723 24.8227 30.9708 27.1789 32.1073 29.6166L32.1073 29.6166C33.1774 31.9119 34.2811 34.2793 35.6959 37.4806ZM95.934 15.8761C97.7276 17.2227 98.8899 19.1872 99.2072 21.4082L99.2071 21.4081C100.519 30.5839 102.166 39.8298 104.105 48.888C105.073 53.4171 102.182 57.8911 97.6598 58.8615C97.0764 58.9862 96.4837 59.0496 95.8965 59.0496C93.6655 59.0496 91.5393 58.1422 89.9858 56.5953C87.6078 57.6115 85.032 58.1427 82.4364 58.1427C71.8182 58.1427 63.1797 49.491 63.1797 38.8572C63.1797 28.2234 71.8182 19.5723 82.4364 19.5723C82.6485 19.5723 82.8622 19.5761 83.0765 19.5833C84.1419 16.7908 86.6411 14.7237 89.7154 14.2829C91.9299 13.9629 94.1399 14.5295 95.934 15.8761ZM82.4364 41.3424C83.8047 41.3424 84.9175 40.2275 84.9175 38.8572C84.9175 37.4869 83.8047 36.3725 82.4364 36.3725C81.0681 36.3725 79.9553 37.4869 79.9553 38.8572C79.9553 40.2275 81.0681 41.3424 82.4364 41.3424ZM166.743 17.4561C156.125 17.4561 147.486 26.1078 147.486 36.7415C147.486 47.3753 156.125 56.0265 166.743 56.0265C177.361 56.0265 186 47.3753 186 36.7415C186 26.1078 177.361 17.4561 166.743 17.4561ZM169.224 36.7415C169.224 38.1118 168.111 39.2262 166.743 39.2262C165.374 39.2262 164.262 38.1118 164.262 36.7415C164.262 35.3712 165.374 34.2563 166.743 34.2563C168.111 34.2563 169.224 35.3712 169.224 36.7415ZM137.317 11.4753H137.317H137.318C141.843 12.4323 144.746 16.8981 143.791 21.4299L132.008 77.2955C131.194 81.1571 127.745 83.9607 123.807 83.9607C123.226 83.9607 122.641 83.8988 122.068 83.7775C119.876 83.3141 117.995 82.0232 116.772 80.1432C115.55 78.2631 115.132 76.0184 115.595 73.8228L120.273 51.6422C115.203 49.5911 111.074 45.2048 109.006 39.557C106.885 33.7681 107.178 27.923 107.414 23.2259L107.414 23.2212C107.527 20.9804 108.504 18.9172 110.164 17.4122C111.827 15.9067 113.975 15.1421 116.215 15.2541C120.833 15.4869 124.071 19.4353 124.169 24.0658C124.189 25.0257 124.212 25.8507 124.234 26.689C124.275 28.2171 124.317 29.7892 124.351 32.3021L127.377 17.9578C128.332 13.4276 132.789 10.5181 137.317 11.4753Z" fill="white"/>
</g>
<defs>
<clipPath id="clip0_1541_43982">
<rect width="186" height="130" fill="white"/>
</clipPath>
</defs>
</svg>
